<svg data-v-fde0c5aa="" xmlns="http://www.w3.org/2000/svg" viewBox="0 0 300 300" class="iconLeft"><!----><defs data-v-fde0c5aa=""><!----></defs><rect data-v-fde0c5aa="" fill="transparent" x="0" y="0" width="300px" height="300px" class="logo-background-square"></rect><defs data-v-fde0c5aa=""><!----></defs><g data-v-fde0c5aa="" id="dfb4f680-a880-4d07-8701-401686b0263a" fill="#000000" transform="matrix(1.9203931588387282,0,0,1.9203931588387282,80.73129605840323,134.18556208056293)"><path d="M6.58 12.29L6.58 12.29L6.58 12.29Q6.90 12.29 7.19 12.22L7.19 12.22L7.19 12.22Q7.49 12.15 7.71 12.00L7.71 12.00L7.71 12.00Q7.94 11.85 8.07 11.61L8.07 11.61L8.07 11.61Q8.21 11.38 8.21 11.06L8.21 11.06L8.21 11.06Q8.21 10.68 8.02 10.41L8.02 10.41L8.02 10.41Q7.83 10.14 7.51 9.94L7.51 9.94L7.51 9.94Q7.19 9.74 6.79 9.57L6.79 9.57L6.79 9.57Q6.38 9.41 5.96 9.23L5.96 9.23L5.96 9.23Q5.54 9.04 5.14 8.82L5.14 8.82L5.14 8.82Q4.74 8.60 4.43 8.29L4.43 8.29L4.43 8.29Q4.11 7.97 3.92 7.54L3.92 7.54L3.92 7.54Q3.73 7.10 3.73 6.50L3.73 6.50L3.73 6.50Q3.73 5.81 3.99 5.25L3.99 5.25L3.99 5.25Q4.26 4.70 4.75 4.31L4.75 4.31L4.75 4.31Q5.24 3.92 5.94 3.71L5.94 3.71L5.94 3.71Q6.63 3.49 7.49 3.49L7.49 3.49L7.49 3.49Q7.72 3.49 8.03 3.51L8.03 3.51L8.03 3.51Q8.34 3.53 8.70 3.57L8.70 3.57L8.70 3.57Q9.05 3.61 9.43 3.68L9.43 3.68L9.43 3.68Q9.80 3.75 10.17 3.85L10.17 3.85L9.82 5.46L9.69 5.51L9.69 5.51Q9.37 5.37 9.05 5.27L9.05 5.27L9.05 5.27Q8.74 5.17 8.44 5.10L8.44 5.10L8.44 5.10Q8.14 5.04 7.88 5.01L7.88 5.01L7.88 5.01Q7.62 4.98 7.42 4.98L7.42 4.98L7.42 4.98Q6.77 4.98 6.37 5.26L6.37 5.26L6.37 5.26Q5.98 5.54 5.98 6.08L5.98 6.08L5.98 6.08Q5.98 6.47 6.17 6.73L6.17 6.73L6.17 6.73Q6.36 6.99 6.68 7.20L6.68 7.20L6.68 7.20Q7 7.40 7.40 7.57L7.40 7.57L7.40 7.57Q7.81 7.74 8.23 7.92L8.23 7.92L8.23 7.92Q8.65 8.11 9.05 8.33L9.05 8.33L9.05 8.33Q9.45 8.54 9.77 8.86L9.77 8.86L9.77 8.86Q10.09 9.17 10.28 9.60L10.28 9.60L10.28 9.60Q10.47 10.03 10.47 10.62L10.47 10.62L10.47 10.62Q10.47 11.32 10.20 11.90L10.20 11.90L10.20 11.90Q9.93 12.48 9.42 12.90L9.42 12.90L9.42 12.90Q8.91 13.32 8.19 13.55L8.19 13.55L8.19 13.55Q7.46 13.78 6.56 13.78L6.56 13.78L6.56 13.78Q6.23 13.78 5.84 13.74L5.84 13.74L5.84 13.74Q5.45 13.71 5.03 13.63L5.03 13.63L5.03 13.63Q4.62 13.56 4.20 13.43L4.20 13.43L4.20 13.43Q3.77 13.31 3.38 13.13L3.38 13.13L3.73 11.52L3.87 11.45L3.87 11.45Q4.26 11.63 4.61 11.79L4.61 11.79L4.61 11.79Q4.97 11.95 5.30 12.06L5.30 12.06L5.30 12.06Q5.63 12.17 5.95 12.23L5.95 12.23L5.95 12.23Q6.26 12.29 6.58 12.29ZM12.11 13.64L12.11 2.69L14.48 2.69L14.48 7.55L14.48 7.55Q14.75 7.32 15.05 7.09L15.05 7.09L15.05 7.09Q15.35 6.86 15.67 6.68L15.67 6.68L15.67 6.68Q16.00 6.49 16.36 6.38L16.36 6.38L16.36 6.38Q16.72 6.26 17.12 6.26L17.12 6.26L17.12 6.26Q17.60 6.26 18.01 6.44L18.01 6.44L18.01 6.44Q18.42 6.62 18.71 6.95L18.71 6.95L18.71 6.95Q19.00 7.27 19.16 7.73L19.16 7.73L19.16 7.73Q19.33 8.20 19.33 8.76L19.33 8.76L19.33 13.64L16.95 13.64L16.95 9.10L16.95 9.10Q16.95 8.80 16.86 8.57L16.86 8.57L16.86 8.57Q16.78 8.33 16.64 8.18L16.64 8.18L16.64 8.18Q16.49 8.02 16.29 7.94L16.29 7.94L16.29 7.94Q16.09 7.86 15.86 7.86L15.86 7.86L15.86 7.86Q15.49 7.86 15.15 8.04L15.15 8.04L15.15 8.04Q14.81 8.22 14.48 8.51L14.48 8.51L14.48 13.64L12.11 13.64ZM21.36 11.27L21.36 6.40L23.73 6.40L23.73 10.92L23.73 10.92Q23.73 11.21 23.81 11.45L23.81 11.45L23.81 11.45Q23.88 11.68 24.02 11.85L24.02 11.85L24.02 11.85Q24.16 12.01 24.35 12.10L24.35 12.10L24.35 12.10Q24.53 12.19 24.76 12.19L24.76 12.19L24.76 12.19Q25.11 12.19 25.43 11.99L25.43 11.99L25.43 11.99Q25.74 11.80 26.03 11.53L26.03 11.53L26.03 6.40L28.40 6.40L28.40 13.64L26.40 13.64L26.11 12.46L26.11 12.46Q25.86 12.68 25.58 12.92L25.58 12.92L25.58 12.92Q25.29 13.15 24.98 13.34L24.98 13.34L24.98 13.34Q24.66 13.54 24.31 13.66L24.31 13.66L24.31 13.66Q23.97 13.78 23.59 13.78L23.59 13.78L23.59 13.78Q23.17 13.78 22.77 13.62L22.77 13.62L22.77 13.62Q22.37 13.47 22.06 13.16L22.06 13.16L22.06 13.16Q21.75 12.84 21.55 12.37L21.55 12.37L21.55 12.37Q21.36 11.90 21.36 11.27L21.36 11.27ZM31.02 11.27L31.02 7.87L29.57 7.87L29.72 6.86L29.72 6.86Q30.08 6.73 30.34 6.62L30.34 6.62L30.34 6.62Q30.61 6.50 30.81 6.37L30.81 6.37L30.81 6.37Q31.01 6.23 31.17 6.08L31.17 6.08L31.17 6.08Q31.32 5.92 31.46 5.70L31.46 5.70L31.46 5.70Q31.60 5.49 31.75 5.22L31.75 5.22L31.75 5.22Q31.89 4.94 32.07 4.57L32.07 4.57L33.25 4.57L33.25 6.40L35.81 6.40L35.48 7.87L33.39 7.87L33.39 10.96L33.39 10.96Q33.39 11.64 33.75 11.92L33.75 11.92L33.75 11.92Q34.10 12.19 34.75 12.19L34.75 12.19L34.75 12.19Q35.01 12.19 35.28 12.14L35.28 12.14L35.28 12.14Q35.55 12.10 35.81 12.00L35.81 12.00L35.81 13.02L35.81 13.02Q35.27 13.41 34.63 13.59L34.63 13.59L34.63 13.59Q34.00 13.78 33.36 13.78L33.36 13.78L33.36 13.78Q32.73 13.78 32.29 13.61L32.29 13.61L32.29 13.61Q31.84 13.43 31.56 13.10L31.56 13.10L31.56 13.10Q31.28 12.78 31.15 12.31L31.15 12.31L31.15 12.31Q31.02 11.85 31.02 11.27L31.02 11.27ZM40.78 11.27L40.78 7.87L39.33 7.87L39.48 6.86L39.48 6.86Q39.84 6.73 40.11 6.62L40.11 6.62L40.11 6.62Q40.37 6.50 40.57 6.37L40.57 6.37L40.57 6.37Q40.78 6.23 40.93 6.08L40.93 6.08L40.93 6.08Q41.08 5.92 41.22 5.70L41.22 5.70L41.22 5.70Q41.36 5.49 41.51 5.22L41.51 5.22L41.51 5.22Q41.65 4.94 41.84 4.57L41.84 4.57L43.01 4.57L43.01 6.40L45.58 6.40L45.24 7.87L43.16 7.87L43.16 10.96L43.16 10.96Q43.16 11.64 43.51 11.92L43.51 11.92L43.51 11.92Q43.86 12.19 44.52 12.19L44.52 12.19L44.52 12.19Q44.78 12.19 45.05 12.14L45.05 12.14L45.05 12.14Q45.32 12.10 45.57 12.00L45.57 12.00L45.57 13.02L45.57 13.02Q45.04 13.41 44.40 13.59L44.40 13.59L44.40 13.59Q43.76 13.78 43.12 13.78L43.12 13.78L43.12 13.78Q42.49 13.78 42.05 13.61L42.05 13.61L42.05 13.61Q41.60 13.43 41.32 13.10L41.32 13.10L41.32 13.10Q41.04 12.78 40.91 12.31L40.91 12.31L40.91 12.31Q40.78 11.85 40.78 11.27L40.78 11.27ZM47.20 13.64L47.20 2.69L49.57 2.69L49.57 7.55L49.57 7.55Q49.84 7.32 50.14 7.09L50.14 7.09L50.14 7.09Q50.44 6.86 50.76 6.68L50.76 6.68L50.76 6.68Q51.09 6.49 51.45 6.38L51.45 6.38L51.45 6.38Q51.81 6.26 52.21 6.26L52.21 6.26L52.21 6.26Q52.69 6.26 53.10 6.44L53.10 6.44L53.10 6.44Q53.50 6.62 53.80 6.95L53.80 6.95L53.80 6.95Q54.09 7.27 54.25 7.73L54.25 7.73L54.25 7.73Q54.41 8.20 54.41 8.76L54.41 8.76L54.41 13.64L52.04 13.64L52.04 9.10L52.04 9.10Q52.04 8.80 51.95 8.57L51.95 8.57L51.95 8.57Q51.87 8.33 51.72 8.18L51.72 8.18L51.72 8.18Q51.58 8.02 51.38 7.94L51.38 7.94L51.38 7.94Q51.18 7.86 50.95 7.86L50.95 7.86L50.95 7.86Q50.58 7.86 50.24 8.04L50.24 8.04L50.24 8.04Q49.90 8.22 49.57 8.51L49.57 8.51L49.57 13.64L47.20 13.64ZM62.81 11.87L62.81 12.89L62.81 12.89Q62.44 13.15 62.05 13.32L62.05 13.32L62.05 13.32Q61.67 13.49 61.28 13.60L61.28 13.60L61.28 13.60Q60.90 13.70 60.53 13.74L60.53 13.74L60.53 13.74Q60.16 13.78 59.82 13.78L59.82 13.78L59.82 13.78Q58.95 13.78 58.24 13.55L58.24 13.55L58.24 13.55Q57.54 13.31 57.05 12.87L57.05 12.87L57.05 12.87Q56.55 12.42 56.29 11.77L56.29 11.77L56.29 11.77Q56.03 11.12 56.03 10.29L56.03 10.29L56.03 10.29Q56.03 9.34 56.36 8.60L56.36 8.60L56.36 8.60Q56.68 7.85 57.23 7.33L57.23 7.33L57.23 7.33Q57.78 6.82 58.51 6.54L58.51 6.54L58.51 6.54Q59.23 6.26 60.03 6.26L60.03 6.26L60.03 6.26Q60.71 6.26 61.29 6.47L61.29 6.47L61.29 6.47Q61.87 6.69 62.29 7.10L62.29 7.10L62.29 7.10Q62.71 7.51 62.94 8.12L62.94 8.12L62.94 8.12Q63.17 8.74 63.17 9.54L63.17 9.54L63.17 9.54Q63.17 9.80 63.15 10.01L63.15 10.01L63.15 10.01Q63.12 10.23 63.09 10.38L63.09 10.38L58.47 10.38L58.47 10.38Q58.47 10.86 58.64 11.20L58.64 11.20L58.64 11.20Q58.80 11.54 59.11 11.76L59.11 11.76L59.11 11.76Q59.42 11.98 59.86 12.09L59.86 12.09L59.86 12.09Q60.30 12.19 60.84 12.19L60.84 12.19L60.84 12.19Q61.03 12.19 61.27 12.17L61.27 12.17L61.27 12.17Q61.50 12.16 61.76 12.12L61.76 12.12L61.76 12.12Q62.02 12.09 62.28 12.03L62.28 12.03L62.28 12.03Q62.55 11.97 62.81 11.87L62.81 11.87ZM58.47 9.54L61.02 9.54L61.02 9.54Q61.02 9.07 60.93 8.73L60.93 8.73L60.93 8.73Q60.83 8.39 60.67 8.17L60.67 8.17L60.67 8.17Q60.50 7.94 60.28 7.84L60.28 7.84L60.28 7.84Q60.05 7.73 59.79 7.73L59.79 7.73L59.79 7.73Q59.49 7.73 59.25 7.85L59.25 7.85L59.25 7.85Q59.01 7.98 58.83 8.21L58.83 8.21L58.83 8.21Q58.66 8.44 58.56 8.78L58.56 8.78L58.56 8.78Q58.47 9.11 58.47 9.54L58.47 9.54ZM73.55 8.08L73.55 8.08L73.55 8.08Q73.94 8.18 74.33 8.38L74.33 8.38L74.33 8.38Q74.72 8.58 75.03 8.88L75.03 8.88L75.03 8.88Q75.34 9.17 75.53 9.57L75.53 9.57L75.53 9.57Q75.72 9.97 75.72 10.48L75.72 10.48L75.72 10.48Q75.72 11.08 75.42 11.65L75.42 11.65L75.42 11.65Q75.11 12.22 74.54 12.66L74.54 12.66L74.54 12.66Q73.96 13.10 73.11 13.37L73.11 13.37L73.11 13.37Q72.27 13.64 71.18 13.64L71.18 13.64L67.80 13.64L67.80 3.63L71.54 3.63L71.54 3.63Q72.47 3.63 73.17 3.80L73.17 3.80L73.17 3.80Q73.87 3.96 74.34 4.26L74.34 4.26L74.34 4.26Q74.81 4.56 75.04 4.96L75.04 4.96L75.04 4.96Q75.28 5.36 75.28 5.82L75.28 5.82L75.28 5.82Q75.28 6.19 75.14 6.50L75.14 6.50L75.14 6.50Q75.00 6.82 74.77 7.10L74.77 7.10L74.77 7.10Q74.53 7.37 74.22 7.61L74.22 7.61L74.22 7.61Q73.90 7.85 73.55 8.08ZM70.21 9.17L70.21 12.15L71.37 12.15L71.37 12.15Q71.83 12.15 72.18 12.02L72.18 12.02L72.18 12.02Q72.53 11.89 72.76 11.67L72.76 11.67L72.76 11.67Q72.99 11.45 73.11 11.17L73.11 11.17L73.11 11.17Q73.23 10.88 73.23 10.58L73.23 10.58L73.23 10.58Q73.23 10.20 73.08 9.93L73.08 9.93L73.08 9.93Q72.93 9.67 72.68 9.50L72.68 9.50L72.68 9.50Q72.42 9.32 72.06 9.25L72.06 9.25L72.06 9.25Q71.71 9.17 71.30 9.17L71.30 9.17L70.21 9.17ZM70.21 7.78L72.19 7.78L72.19 7.78Q72.50 7.57 72.71 7.21L72.71 7.21L72.71 7.21Q72.92 6.85 72.92 6.40L72.92 6.40L72.92 6.40Q72.92 6.10 72.81 5.87L72.81 5.87L72.81 5.87Q72.69 5.63 72.48 5.47L72.48 5.47L72.48 5.47Q72.28 5.30 71.98 5.21L71.98 5.21L71.98 5.21Q71.68 5.12 71.32 5.12L71.32 5.12L70.21 5.12L70.21 7.78ZM80.76 13.78L80.76 13.78L80.76 13.78Q79.82 13.78 79.12 13.49L79.12 13.49L79.12 13.49Q78.42 13.20 77.96 12.71L77.96 12.71L77.96 12.71Q77.49 12.22 77.26 11.58L77.26 11.58L77.26 11.58Q77.03 10.93 77.03 10.22L77.03 10.22L77.03 10.22Q77.03 9.39 77.33 8.67L77.33 8.67L77.33 8.67Q77.64 7.94 78.19 7.41L78.19 7.41L78.19 7.41Q78.74 6.88 79.52 6.57L79.52 6.57L79.52 6.57Q80.29 6.26 81.25 6.26L81.25 6.26L81.25 6.26Q82.18 6.26 82.88 6.55L82.88 6.55L82.88 6.55Q83.58 6.84 84.05 7.32L84.05 7.32L84.05 7.32Q84.51 7.81 84.75 8.46L84.75 8.46L84.75 8.46Q84.98 9.11 84.98 9.84L84.98 9.84L84.98 9.84Q84.98 10.68 84.68 11.41L84.68 11.41L84.68 11.41Q84.37 12.13 83.81 12.66L83.81 12.66L83.81 12.66Q83.25 13.19 82.48 13.48L82.48 13.48L82.48 13.48Q81.70 13.78 80.76 13.78ZM81.05 12.31L81.05 12.31L81.05 12.31Q81.38 12.31 81.65 12.17L81.65 12.17L81.65 12.17Q81.92 12.04 82.11 11.76L82.11 11.76L82.11 11.76Q82.31 11.48 82.42 11.07L82.42 11.07L82.42 11.07Q82.54 10.66 82.54 10.12L82.54 10.12L82.54 10.12Q82.54 9.60 82.43 9.17L82.43 9.17L82.43 9.17Q82.33 8.73 82.12 8.41L82.12 8.41L82.12 8.41Q81.92 8.09 81.63 7.91L81.63 7.91L81.63 7.91Q81.34 7.73 80.96 7.73L80.96 7.73L80.96 7.73Q80.64 7.73 80.36 7.88L80.36 7.88L80.36 7.88Q80.09 8.03 79.90 8.31L79.90 8.31L79.90 8.31Q79.70 8.59 79.59 9.00L79.59 9.00L79.59 9.00Q79.48 9.41 79.48 9.94L79.48 9.94L79.48 9.94Q79.48 10.48 79.59 10.92L79.59 10.92L79.59 10.92Q79.70 11.35 79.91 11.67L79.91 11.67L79.91 11.67Q80.11 11.98 80.40 12.14L80.40 12.14L80.40 12.14Q80.69 12.31 81.05 12.31ZM87.75 13.64L85.66 13.64L88.31 10.01L85.82 6.40L88.56 6.40L89.24 7.55L89.78 8.74L89.89 8.74L90.43 7.55L91.12 6.40L93.20 6.40L90.70 9.77L93.35 13.64L90.62 13.64L89.78 12.24L89.23 11.12L89.11 11.12L88.59 12.23L87.75 13.64Z"></path></g><defs data-v-fde0c5aa=""><linearGradient data-v-fde0c5aa="" gradientTransform="rotate(25)" id="1a93f0f1-a8d9-4774-9097-d2904c70f4af" x1="0%" y1="0%" x2="100%" y2="0%"><stop data-v-fde0c5aa="" offset="0%" stop-color="#006678" stop-opacity="1"></stop><stop data-v-fde0c5aa="" offset="100%" stop-color="#4FA8FF" stop-opacity="1"></stop></linearGradient></defs><g data-v-fde0c5aa="" id="b073de2a-7814-4892-8dca-75bf4555dd95" stroke="none" fill="url(#1a93f0f1-a8d9-4774-9097-d2904c70f4af)" transform="matrix(0.3802466882959294,0,0,0.3802466882959294,38.09878886035764,130.9878945869961)"><path d="M89.513 52.195H61.535c-3.028 0-5.487 2.515-5.487 5.615v28.587c0 3.101 2.459 5.609 5.487 5.609h27.978c3.031 0 5.487-2.509 5.487-5.609V57.811c0-3.101-2.456-5.616-5.487-5.616zM67.929 87.231h-.336a3.583 3.583 0 0 1-3.592-3.579c0-1.968 1.605-3.567 3.592-3.567h.336c1.989 0 3.596 1.6 3.596 3.567a3.584 3.584 0 0 1-3.596 3.579zm0-11.585h-.336a3.582 3.582 0 0 1-3.592-3.574c0-1.973 1.605-3.566 3.592-3.566h.336c1.989 0 3.596 1.594 3.596 3.566a3.584 3.584 0 0 1-3.596 3.574zm0-11.523h-.336a3.582 3.582 0 0 1-3.592-3.573 3.585 3.585 0 0 1 3.592-3.574h.336c1.989 0 3.596 1.606 3.596 3.574a3.584 3.584 0 0 1-3.596 3.573zm15.523 23.108h-.336a3.585 3.585 0 0 1-3.593-3.579c0-1.968 1.609-3.567 3.593-3.567h.336c1.985 0 3.595 1.6 3.595 3.567a3.585 3.585 0 0 1-3.595 3.579zm0-11.585h-.336c-1.983 0-3.593-1.601-3.593-3.574 0-1.973 1.609-3.566 3.593-3.566h.336c1.985 0 3.595 1.594 3.595 3.566 0 1.974-1.609 3.574-3.595 3.574zm0-11.523h-.336c-1.983 0-3.593-1.601-3.593-3.573 0-1.968 1.609-3.574 3.593-3.574h.336c1.985 0 3.595 1.606 3.595 3.574 0 1.972-1.609 3.573-3.595 3.573zm-25.5 26.489c-2.798-1.033-5.904-4.925-5.904-7.589V54.43c0-3.101 2.459-5.609 5.487-5.609h27.978c2.462 0 6.142 3.336 7.442 4.594a5.382 5.382 0 0 0-3.442-1.245H61.535c-3.028 0-5.487 2.509-5.487 5.609v28.587c0 1.699.74 3.213 1.904 4.246zm-4.806-64.259L28.369 13.441c-2.683-1.401-6.032-.311-7.477 2.434L7.526 41.194c-1.447 2.746-.448 6.101 2.235 7.496l24.777 12.912c2.68 1.4 6.033.312 7.48-2.435l13.366-25.318c1.451-2.746.449-6.095-2.238-7.496zM17.658 47.414l-.295-.155a3.562 3.562 0 0 1-1.513-4.825 3.595 3.595 0 0 1 4.85-1.5l.299.156a3.555 3.555 0 0 1 1.516 4.818 3.617 3.617 0 0 1-4.857 1.506zm5.413-10.266l-.292-.149c-1.765-.915-2.438-3.082-1.516-4.825s3.094-2.416 4.853-1.506l.299.155a3.57 3.57 0 0 1 1.516 4.825 3.61 3.61 0 0 1-4.86 1.5zm5.391-10.204l-.299-.156a3.558 3.558 0 0 1-1.516-4.818c.921-1.749 3.094-2.421 4.853-1.506l.299.162a3.554 3.554 0 0 1 1.516 4.819c-.921 1.742-3.094 2.414-4.853 1.499zm2.945 27.629l-.299-.156a3.553 3.553 0 0 1-1.513-4.818 3.602 3.602 0 0 1 4.856-1.5l.292.149a3.554 3.554 0 0 1 1.513 4.818 3.601 3.601 0 0 1-4.849 1.507zm5.416-10.26l-.299-.156a3.555 3.555 0 0 1-1.516-4.818 3.61 3.61 0 0 1 4.856-1.507l.295.156c1.759.915 2.434 3.082 1.513 4.825s-3.093 2.416-4.849 1.5zm5.388-10.209l-.302-.149a3.562 3.562 0 0 1-1.513-4.818c.921-1.75 3.094-2.422 4.855-1.506l.296.155a3.563 3.563 0 0 1 1.516 4.825 3.602 3.602 0 0 1-4.852 1.493zM7.243 45.801c-1.992-2.204-2.926-7.084-1.678-9.444l13.366-25.319c1.447-2.746 4.793-3.835 7.477-2.434l24.777 12.911c2.179 1.133 3.878 5.79 4.441 7.496a5.32 5.32 0 0 0-2.465-2.683L28.388 13.417c-2.686-1.401-6.039-.311-7.483 2.428L7.542 41.164a5.625 5.625 0 0 0-.299 4.637z"></path></g><!----></svg>